# xmcd
#
# Track frame offsets:
#	150
#	12772
#	31655
#	46490
#	60345
#	74610
#	85562
#	96137
#	108097
#	121947
#	136547
#	150782
#	168857
#
# Disc length: 2373 seconds
#
# Revision: 0
# Processed by: cddbd v1.5.1PL0 Copyright (c) Steve Scherf et al.
# Submitted via: dBpowerAMP V4.0
#
DISCID=8609430d
DTITLE=101 Strings Orchestra - Take Me Home Country Roads Disc 2
DYEAR=1900
DGENRE=Country
TTITLE0=Oh Susanna
TTITLE1=Down By The Riverside
TTITLE2=Comin' Home
TTITLE3=Come Back To Paridise
TTITLE4=Someone To Watch Over Me
TTITLE5=You Are My Sunshine
TTITLE6=I Can't Stop Loving You
TTITLE7=Wabash Cannonball
TTITLE8=By The Time I Get To Phoenix
TTITLE9=Goodbye Yellow Brick Road
TTITLE10=On The Street Where You Live
TTITLE11=Strolling Through The Park One Day
TTITLE12=America The Beautiful
EXTD=
EXTT0=
EXTT1=
EXTT2=
EXTT3=
EXTT4=
EXTT5=
EXTT6=
EXTT7=
EXTT8=
EXTT9=
EXTT10=
EXTT11=
EXTT12=
PLAYORDER=
